name Walk9.mot
datacolumns 19
datarows 25
range 1.82100000 1.84500000
endheader

                time	   L_ground_force_vx	   L_ground_force_vy	   L_ground_force_vz	   L_ground_force_px	   L_ground_force_py	   L_ground_force_pz	   R_ground_force_vx	   R_ground_force_vy	   R_ground_force_vz	   R_ground_force_px	   R_ground_force_py	   R_ground_force_pz	   L_ground_torque_x	   L_ground_torque_y	   L_ground_torque_z	   R_ground_torque_x	   R_ground_torque_y	   R_ground_torque_z	
          1.82100000	          0.01316502	          0.02348141	         -0.00295738	         -0.00015597	          0.00000000	         -0.00002738	        -18.80577100	        434.27043402	        -36.26019120	          0.38775121	          0.00000000	          0.07593621	          0.00000000	          0.00012179	          0.00000000	          0.00000000	          4.75111828	          0.00000000	
          1.82200000	          0.01183636	          0.02029948	         -0.00268390	         -0.00014723	          0.00000000	         -0.00002591	        -18.62956535	        433.20890151	        -36.04245621	          0.38844577	          0.00000000	          0.07593074	          0.00000000	          0.00011515	          0.00000000	          0.00000000	          4.69651332	          0.00000000	
          1.82300000	          0.01057594	          0.01731139	         -0.00242354	         -0.00013868	          0.00000000	         -0.00002447	        -18.45025529	        432.19803771	        -35.82624581	          0.38912595	          0.00000000	          0.07592361	          0.00000000	          0.00010864	          0.00000000	          0.00000000	          4.64188885	          0.00000000	
          1.82400000	          0.00938272	          0.01451195	         -0.00217616	         -0.00013033	          0.00000000	         -0.00002305	        -18.26764704	        431.23731477	        -35.61167677	          0.38979162	          0.00000000	          0.07591486	          0.00000000	          0.00010227	          0.00000000	          0.00000000	          4.58721019	          0.00000000	
          1.82500000	          0.00825550	          0.01189568	         -0.00194159	         -0.00012219	          0.00000000	         -0.00002167	        -18.08155630	        430.32617604	        -35.39886562	          0.39044262	          0.00000000	          0.07590453	          0.00000000	          0.00009606	          0.00000000	          0.00000000	          4.53244362	          0.00000000	
          1.82600000	          0.00719292	          0.00945691	         -0.00171962	         -0.00011429	          0.00000000	         -0.00002033	        -17.89180941	        429.46403558	        -35.18792857	          0.39107885	          0.00000000	          0.07589265	          0.00000000	          0.00009002	          0.00000000	          0.00000000	          4.47755666	          0.00000000	
          1.82700000	          0.00619351	          0.00718976	         -0.00151003	         -0.00010663	          0.00000000	         -0.00001902	        -17.69824449	        428.65027729	        -34.97898160	          0.39170025	          0.00000000	          0.07587926	          0.00000000	          0.00008414	          0.00000000	          0.00000000	          4.42251835	          0.00000000	
          1.82800000	          0.00525567	          0.00508821	         -0.00131255	         -0.00009922	          0.00000000	         -0.00001776	        -17.50071260	        427.88425404	        -34.77214039	          0.39230675	          0.00000000	          0.07586441	          0.00000000	          0.00007845	          0.00000000	          0.00000000	          4.36729951	          0.00000000	
          1.82900000	          0.00437771	          0.00314611	         -0.00112691	         -0.00009206	          0.00000000	         -0.00001653	        -17.29907871	        427.16528763	        -34.56752005	          0.39289833	          0.00000000	          0.07584812	          0.00000000	          0.00007295	          0.00000000	          0.00000000	          4.31187289	          0.00000000	
          1.83000000	          0.00355785	          0.00135725	         -0.00095279	         -0.00008516	          0.00000000	         -0.00001534	        -17.09322248	        426.49266993	        -34.36523444	          0.39347498	          0.00000000	          0.07583044	          0.00000000	          0.00006764	          0.00000000	          0.00000000	          4.25621324	          0.00000000	
          1.83100000	          0.00279426	         -0.00028465	         -0.00078987	         -0.00007853	          0.00000000	         -0.00001420	        -16.88303878	        425.86566535	        -34.16539509	          0.39403670	          0.00000000	          0.07581139	          0.00000000	          0.00006252	          0.00000000	          0.00000000	          4.20029724	          0.00000000	
          1.83200000	          0.00208503	         -0.00178587	         -0.00063782	         -0.00007216	          0.00000000	         -0.00001310	        -16.66843786	        425.28351408	        -33.96810966	          0.39458351	          0.00000000	          0.07579102	          0.00000000	          0.00005760	          0.00000000	          0.00000000	          4.14410345	          0.00000000	
          1.83300000	          0.00142823	         -0.00315270	         -0.00049629	         -0.00006606	          0.00000000	         -0.00001205	        -16.44934546	        424.74543546	        -33.77348032	          0.39511543	          0.00000000	          0.07576935	          0.00000000	          0.00005289	          0.00000000	          0.00000000	          4.08761212	          0.00000000	
          1.83400000	          0.00082187	         -0.00439140	         -0.00036492	         -0.00006024	          0.00000000	         -0.00001104	        -16.22570260	        424.25063093	        -33.58160229	          0.39563251	          0.00000000	          0.07574642	          0.00000000	          0.00004837	          0.00000000	          0.00000000	          4.03080498	          0.00000000	
          1.83500000	          0.00026396	         -0.00550819	         -0.00024334	         -0.00005467	          0.00000000	         -0.00001007	        -15.99746538	        423.79828701	        -33.39256271	          0.39613481	          0.00000000	          0.07572226	          0.00000000	          0.00004406	          0.00000000	          0.00000000	          3.97366489	          0.00000000	
          1.83600000	         -0.00024751	         -0.00650921	         -0.00013117	         -0.00004938	          0.00000000	         -0.00000915	        -15.76460464	        423.38757843	        -33.20643994	          0.39662241	          0.00000000	          0.07569691	          0.00000000	          0.00003995	          0.00000000	          0.00000000	          3.91617554	          0.00000000	
          1.83700000	         -0.00071456	         -0.00740053	         -0.00002805	         -0.00004435	          0.00000000	         -0.00000827	        -15.52710548	        423.01767139	        -33.02330327	          0.39709539	          0.00000000	          0.07567041	          0.00000000	          0.00003603	          0.00000000	          0.00000000	          3.85832128	          0.00000000	
          1.83800000	         -0.00113919	         -0.00818809	          0.00006641	         -0.00003958	          0.00000000	         -0.00000744	        -15.28496670	        422.68772635	        -32.84321301	          0.39755387	          0.00000000	          0.07564278	          0.00000000	          0.00003231	          0.00000000	          0.00000000	          3.80008702	          0.00000000	
          1.83900000	         -0.00152342	         -0.00887776	          0.00015259	         -0.00003506	          0.00000000	         -0.00000664	        -15.03820012	        422.39690005	        -32.66622082	          0.39799799	          0.00000000	          0.07561406	          0.00000000	          0.00002879	          0.00000000	          0.00000000	          3.74145841	          0.00000000	
          1.84000000	         -0.00186923	         -0.00947523	          0.00023087	         -0.00003080	          0.00000000	         -0.00000589	        -14.78682986	        422.14434669	        -32.49237002	          0.39842790	          0.00000000	          0.07558429	          0.00000000	          0.00002545	          0.00000000	          0.00000000	          3.68242218	          0.00000000	
          1.84100000	         -0.00217856	         -0.00998611	          0.00030161	         -0.00002678	          0.00000000	         -0.00000518	        -14.53089173	        421.92921852	        -32.32169579	          0.39884377	          0.00000000	          0.07555349	          0.00000000	          0.00002231	          0.00000000	          0.00000000	          3.62296655	          0.00000000	
          1.84200000	         -0.00245337	         -0.01041581	          0.00036520	         -0.00002301	          0.00000000	         -0.00000452	        -14.27043267	        421.75066655	        -32.15422491	          0.39924578	          0.00000000	          0.07552169	          0.00000000	          0.00001935	          0.00000000	          0.00000000	          3.56308166	          0.00000000	
          1.84300000	         -0.00269554	         -0.01076961	          0.00042201	         -0.00001946	          0.00000000	         -0.00000389	        -14.00551024	        421.60784127	        -31.98997513	          0.39963413	          0.00000000	          0.07548892	          0.00000000	          0.00001656	          0.00000000	          0.00000000	          3.50275983	          0.00000000	
          1.84400000	         -0.00290693	         -0.01105264	          0.00047239	         -0.00001615	          0.00000000	         -0.00000330	        -13.73619204	        421.49989382	        -31.82895401	          0.40000905	          0.00000000	          0.07545520	          0.00000000	          0.00001395	          0.00000000	          0.00000000	          3.44199567	          0.00000000	
          1.84500000	         -0.00308936	         -0.01126984	          0.00051670	         -0.00001306	          0.00000000	         -0.00000275	        -13.46255488	        421.42597770	        -31.67115758	          0.40037076	          0.00000000	          0.07542053	          0.00000000	          0.00001151	          0.00000000	          0.00000000	          3.38078613	          0.00000000	
